<svg width="204" height="204" fill="none" version="1.1" viewBox="0 0 204 204" xmlns="http://www.w3.org/2000/svg">
 <path d="m187.64 69.902c5.453-2.0435 11.587 0.7122 13.057 6.3463 5.542 21.238 4.106 43.803-4.26 64.298-9.699 23.764-28.001 42.997-51.254 53.863-23.254 10.866-49.749 12.566-74.2 4.76-24.451-7.805-45.061-24.541-57.718-46.87-12.657-22.329-16.43-48.609-10.568-73.597 5.8627-24.988 20.93-46.848 42.198-61.217 21.267-14.37 47.17-20.194 72.541-16.31 21.882 3.3498 41.98 13.708 57.356 29.372 4.078 4.1554 3.292 10.834-1.262 14.462-4.554 3.6284-11.144 2.8182-15.334-1.2258-11.983-11.568-27.318-19.219-43.951-21.765-20.126-3.0811-40.674 1.5387-57.545 12.938-16.871 11.399-28.824 28.74-33.474 48.562-4.6507 19.822-1.6572 40.67 8.3831 58.383 10.04 17.713 26.39 30.989 45.786 37.181 19.396 6.192 40.415 4.843 58.861-3.777 18.446-8.619 32.964-23.876 40.659-42.727 6.359-15.579 7.67-32.666 3.901-48.89-1.318-5.6716 1.372-11.742 6.824-13.786z" fill="url(#paint0_linear_16_344)"/>
 <defs>
  <linearGradient id="paint0_linear_16_344" x1="-12.435" x2="228.12" y1="91.214" y2="92.098" gradientUnits="userSpaceOnUse">
   <stop stop-color="#AA367C" offset="0"/>
   <stop stop-color="#4A2FBD" offset="1"/>
  </linearGradient>
 </defs>
</svg>
